<svg width="40" height="38" viewBox="0 0 40 38" fill="none" xmlns="http://www.w3.org/2000/svg">
<path d="M30.7047 14.0655C30.7047 13.7143 30.889 13.3888 31.1902 13.2081L38.1312 9.04346C38.7977 8.64355 39.6457 9.12366 39.6457 9.90096V29.6151C39.6457 30.3924 38.7977 30.8725 38.1312 30.4726L31.1902 26.308C30.889 26.1273 30.7047 25.8018 30.7047 25.4505V14.0655Z" fill="#C4C4C4"/>
<path d="M0.30542 10.1348C0.30542 9.03019 1.20085 8.13477 2.30542 8.13477H24.9166C27.1257 8.13477 28.9166 9.92563 28.9166 12.1348V29.3813C28.9166 30.4859 28.0211 31.3813 26.9166 31.3813H4.30542C2.09628 31.3813 0.30542 29.5905 0.30542 27.3813V10.1348Z" fill="#C4C4C4"/>
<path d="M37.8576 0.981934L2.09363 36.7459" stroke="#CC3B33" stroke-width="1.5" stroke-linecap="round"/>
</svg>
