<svg width="40" height="24" viewBox="0 0 40 24" fill="none" xmlns="http://www.w3.org/2000/svg">
<path d="M30.7295 6.06555C30.7295 5.71428 30.9138 5.38878 31.215 5.20805L38.156 1.04346C38.8225 0.643549 39.6705 1.12366 39.6705 1.90096V21.6151C39.6705 22.3924 38.8225 22.8725 38.156 22.4726L31.215 18.308C30.9138 18.1273 30.7295 17.8018 30.7295 17.4505V6.06555Z" fill="#C4C4C4"/>
<path d="M0.330078 2.13476C0.330078 1.03019 1.22551 0.134766 2.33008 0.134766H24.9412C27.1504 0.134766 28.9412 1.92563 28.9412 4.13477V21.3813C28.9412 22.4859 28.0458 23.3813 26.9412 23.3813H4.33008C2.12094 23.3813 0.330078 21.5905 0.330078 19.3813V2.13476Z" fill="#C4C4C4"/>
</svg>
