<svg width="101" height="51" viewBox="0 0 101 51" fill="none" xmlns="http://www.w3.org/2000/svg">
<rect x="0.349609" y="0.859375" width="99.7354" height="49.8677" rx="11" fill="#CC3B33"/>
<path d="M32.772 32.1067V33.7932H24.9517V32.1067H32.772ZM25.3599 18.1526V33.7932H23.2866V18.1526H25.3599ZM39.6685 34.0081C38.8592 34.0081 38.1252 33.872 37.4663 33.5999C36.8146 33.3206 36.2524 32.9303 35.7798 32.429C35.3143 31.9277 34.9562 31.3333 34.7056 30.6458C34.4549 29.9583 34.3296 29.2063 34.3296 28.3899V27.9387C34.3296 26.9934 34.4692 26.1519 34.7485 25.4143C35.0278 24.6695 35.4074 24.0393 35.8872 23.5237C36.367 23.0081 36.9113 22.6178 37.52 22.3528C38.1287 22.0878 38.759 21.9553 39.4106 21.9553C40.2414 21.9553 40.9575 22.0986 41.5591 22.385C42.1678 22.6715 42.6655 23.0725 43.0522 23.5881C43.439 24.0966 43.7254 24.6982 43.9116 25.3928C44.0978 26.0803 44.1909 26.8323 44.1909 27.6487V28.5403H35.5112V26.9182H42.2036V26.7678C42.175 26.2522 42.0675 25.7509 41.8813 25.2639C41.7023 24.7769 41.4159 24.3759 41.022 24.0608C40.6281 23.7457 40.091 23.5881 39.4106 23.5881C38.9595 23.5881 38.5441 23.6848 38.1646 23.8782C37.785 24.0644 37.4591 24.3437 37.187 24.7161C36.9149 25.0885 36.7036 25.5432 36.5532 26.0803C36.4028 26.6174 36.3276 27.2369 36.3276 27.9387V28.3899C36.3276 28.9413 36.4028 29.4605 36.5532 29.9475C36.7108 30.4273 36.9364 30.8499 37.23 31.2151C37.5308 31.5803 37.8924 31.8668 38.3149 32.0745C38.7446 32.2821 39.2316 32.386 39.7759 32.386C40.4777 32.386 41.0721 32.2428 41.5591 31.9563C42.0461 31.6698 42.4722 31.2867 42.8374 30.8069L44.0405 31.7629C43.7899 32.1425 43.4712 32.5042 43.0845 32.8479C42.6978 33.1917 42.2215 33.4709 41.6558 33.6858C41.0972 33.9006 40.4347 34.0081 39.6685 34.0081ZM53.3647 31.8059V25.8225C53.3647 25.3642 53.2716 24.9667 53.0854 24.6301C52.9064 24.2864 52.6343 24.0214 52.269 23.8352C51.9038 23.649 51.4526 23.5559 50.9155 23.5559C50.4142 23.5559 49.9738 23.6418 49.5942 23.8137C49.2218 23.9856 48.9282 24.2112 48.7134 24.4905C48.5057 24.7698 48.4019 25.0706 48.4019 25.3928H46.4146C46.4146 24.9775 46.522 24.5657 46.7368 24.1575C46.9517 23.7493 47.2596 23.3805 47.6606 23.051C48.0688 22.7144 48.5558 22.4495 49.1216 22.2561C49.6945 22.0556 50.3319 21.9553 51.0337 21.9553C51.8787 21.9553 52.6235 22.0986 53.2681 22.385C53.9198 22.6715 54.4282 23.1047 54.7935 23.6848C55.1659 24.2577 55.3521 24.9775 55.3521 25.844V31.2581C55.3521 31.6448 55.3843 32.0566 55.4487 32.4934C55.5203 32.9303 55.6242 33.3062 55.7603 33.6213V33.7932H53.687C53.5868 33.564 53.508 33.2597 53.4507 32.8801C53.3934 32.4934 53.3647 32.1353 53.3647 31.8059ZM53.7085 26.7463L53.73 28.1428H51.7212C51.1554 28.1428 50.6506 28.1894 50.2065 28.2825C49.7625 28.3684 49.3901 28.5009 49.0894 28.6799C48.7886 28.859 48.5594 29.0846 48.4019 29.3567C48.2443 29.6217 48.1655 29.9332 48.1655 30.2913C48.1655 30.6565 48.2479 30.9895 48.4126 31.2903C48.5773 31.5911 48.8244 31.831 49.1538 32.01C49.4904 32.1819 49.9022 32.2678 50.3892 32.2678C50.9979 32.2678 51.535 32.1389 52.0005 31.8811C52.466 31.6233 52.8348 31.3082 53.1069 30.9358C53.3862 30.5634 53.5366 30.2017 53.5581 29.8508L54.4067 30.8069C54.3566 31.1077 54.2205 31.4407 53.9985 31.8059C53.7765 32.1711 53.4793 32.5221 53.1069 32.8586C52.7417 33.1881 52.3049 33.4638 51.7964 33.6858C51.2951 33.9006 50.7293 34.0081 50.0991 34.0081C49.3114 34.0081 48.6203 33.8541 48.0259 33.5461C47.4386 33.2382 46.9803 32.8264 46.6509 32.3108C46.3286 31.788 46.1675 31.2043 46.1675 30.5598C46.1675 29.9368 46.2892 29.3889 46.5327 28.9163C46.7762 28.4364 47.1271 28.039 47.5854 27.7239C48.0438 27.4016 48.5952 27.1581 49.2397 26.9934C49.8843 26.8287 50.604 26.7463 51.3989 26.7463H53.7085ZM61.8403 31.9993L65.02 22.1702H67.0503L62.8716 33.7932H61.5396L61.8403 31.9993ZM59.187 22.1702L62.4634 32.053L62.689 33.7932H61.3569L57.146 22.1702H59.187ZM73.6353 34.0081C72.826 34.0081 72.092 33.872 71.4331 33.5999C70.7814 33.3206 70.2192 32.9303 69.7466 32.429C69.2811 31.9277 68.923 31.3333 68.6724 30.6458C68.4217 29.9583 68.2964 29.2063 68.2964 28.3899V27.9387C68.2964 26.9934 68.436 26.1519 68.7153 25.4143C68.9946 24.6695 69.3742 24.0393 69.854 23.5237C70.3338 23.0081 70.8781 22.6178 71.4868 22.3528C72.0955 22.0878 72.7257 21.9553 73.3774 21.9553C74.2082 21.9553 74.9243 22.0986 75.5259 22.385C76.1346 22.6715 76.6323 23.0725 77.019 23.5881C77.4058 24.0966 77.6922 24.6982 77.8784 25.3928C78.0646 26.0803 78.1577 26.8323 78.1577 27.6487V28.5403H69.478V26.9182H76.1704V26.7678C76.1418 26.2522 76.0343 25.7509 75.8481 25.2639C75.6691 24.7769 75.3826 24.3759 74.9888 24.0608C74.5949 23.7457 74.0578 23.5881 73.3774 23.5881C72.9263 23.5881 72.5109 23.6848 72.1313 23.8782C71.7518 24.0644 71.4259 24.3437 71.1538 24.7161C70.8817 25.0885 70.6704 25.5432 70.52 26.0803C70.3696 26.6174 70.2944 27.2369 70.2944 27.9387V28.3899C70.2944 28.9413 70.3696 29.4605 70.52 29.9475C70.6776 30.4273 70.9032 30.8499 71.1968 31.2151C71.4976 31.5803 71.8592 31.8668 72.2817 32.0745C72.7114 32.2821 73.1984 32.386 73.7427 32.386C74.4445 32.386 75.0389 32.2428 75.5259 31.9563C76.0129 31.6698 76.439 31.2867 76.8042 30.8069L78.0073 31.7629C77.7567 32.1425 77.438 32.5042 77.0513 32.8479C76.6646 33.1917 76.1883 33.4709 75.6226 33.6858C75.064 33.9006 74.4015 34.0081 73.6353 34.0081Z" fill="white"/>
</svg>
