<svg width="38" height="39" viewBox="0 0 38 39" fill="none" xmlns="http://www.w3.org/2000/svg">
<path fill-rule="evenodd" clip-rule="evenodd" d="M26.2203 9.84514V7.13574C26.2203 3.82203 23.534 1.13574 20.2203 1.13574H17.7793C14.4656 1.13574 11.7793 3.82204 11.7793 7.13575V20.4075C11.7793 21.5202 12.0822 22.5622 12.61 23.4555L26.2203 9.84514ZM14.7313 25.5768C15.6246 26.1046 16.6666 26.4075 17.7793 26.4075H20.2203C23.534 26.4075 26.2203 23.7213 26.2203 20.4075V14.0878L14.7313 25.5768Z" fill="#C4C4C4"/>
<path fill-rule="evenodd" clip-rule="evenodd" d="M11.3226 24.7433C10.4408 23.5269 9.84103 22.0928 9.61915 20.5368C9.51359 19.7966 8.91761 19.187 8.1699 19.187C7.42219 19.187 6.80816 19.7955 6.89018 20.5387C7.14396 22.8382 8.0376 24.9448 9.38914 26.6768L11.3226 24.7433ZM11.5104 28.7982C13.2419 30.1495 15.348 31.0431 17.6468 31.2973V35.8845H13.5853C12.8376 35.8845 12.2314 36.4906 12.2314 37.2383C12.2314 37.986 12.8376 38.5921 13.5853 38.5921H24.4161C25.1638 38.5921 25.7699 37.986 25.7699 37.2383C25.7699 36.4906 25.1638 35.8845 24.4161 35.8845H20.3545V31.2973C26.003 30.6729 30.4878 26.1874 31.1112 20.5387C31.1932 19.7955 30.5792 19.187 29.8314 19.187C29.0837 19.187 28.4878 19.7966 28.3822 20.5368C27.7271 25.131 23.7772 28.6632 19.0022 28.6639H19.0007C16.9249 28.6639 15.005 27.9966 13.4439 26.8647L11.5104 28.7982Z" fill="#C4C4C4"/>
<path d="M37.0513 1.13574L0.94873 37.2383" stroke="#CC3B33" stroke-width="1.5" stroke-linecap="round"/>
</svg>
