<svg width="18" height="26" viewBox="0 0 18 26" fill="none" xmlns="http://www.w3.org/2000/svg">
<path d="M6.73983 16.4687C7.31325 16.7175 7.92991 16.8465 8.55322 16.848C11.1569 16.848 13.2754 14.6641 13.2754 11.9802V5.30955C13.2754 2.61364 11.2012 0.501867 8.55322 0.501867C7.93241 0.499404 7.31726 0.622077 6.74325 0.862813C6.16923 1.10355 5.64769 1.45759 5.20871 1.90451C4.76973 2.35144 4.42199 2.88241 4.18553 3.46682C3.94907 4.05123 3.82858 4.67751 3.831 5.30955V11.9802C3.83185 13.2612 4.32929 14.4901 5.2152 15.3997C5.64795 15.8564 6.16642 16.2199 6.73983 16.4687Z" fill="#C4C4C4"/>
<path d="M1.94211 10.1172C1.94211 9.58619 1.51927 9.1557 0.997667 9.1557C0.476065 9.1557 0.0532227 9.58619 0.0532227 10.1172V12.0403C0.0532227 16.4772 3.37222 20.159 7.60877 20.6407V23.5787H4.77545C4.25385 23.5787 3.83101 24.0092 3.83101 24.5403C3.83101 25.0713 4.25385 25.5018 4.77545 25.5018H8.5487L8.55322 25.5018L8.55774 25.5018H12.331C12.8526 25.5018 13.2755 25.0713 13.2755 24.5403C13.2755 24.0092 12.8526 23.5787 12.331 23.5787H9.49766V20.6408C13.7342 20.159 17.0532 16.4772 17.0532 12.0403V10.1172C17.0532 9.58619 16.6304 9.1557 16.1088 9.1557C15.5872 9.1557 15.1643 9.58619 15.1643 10.1172V12.0403C15.1643 15.74 12.1872 18.7711 8.55322 18.7711C4.91927 18.7711 1.94211 15.74 1.94211 12.0403V10.1172Z" fill="#C4C4C4"/>
</svg>
