<svg width="96" height="32" viewBox="0 0 96 32" fill="none" xmlns="http://www.w3.org/2000/svg">
<circle cx="13.16" cy="7.78283" r="7.18322" fill="#C4C4C4"/>
<circle cx="30.2201" cy="10.4765" r="6.28532" fill="#C4C4C4"/>
<path d="M21.863 31.1283C23.7969 31.1283 25.7309 28.7114 25.7309 26.2934C25.7309 20.4916 18.9244 18.5576 13.1602 18.5576C7.39602 18.5576 0.5896 20.4916 0.5896 26.2934C0.5896 28.7114 2.52354 31.1283 4.45749 31.1283H21.863Z" fill="#C4C4C4"/>
<path fill-rule="evenodd" clip-rule="evenodd" d="M22.6844 30.988C24.3089 30.4391 25.7307 28.3667 25.7307 26.2935C25.7307 24.3613 24.9758 22.8581 23.7559 21.7125C21.7616 22.7414 20.3433 24.4232 20.3433 26.9842C20.3433 28.7369 21.43 30.4889 22.6844 30.988ZM26.7593 31.1283H37.0581C38.5776 31.1283 40.0971 29.0567 40.0971 26.9842C40.0971 22.0112 34.7492 20.3535 30.2202 20.3535C29.0054 20.3535 27.7317 20.4728 26.5181 20.7433C27.6782 22.1894 28.4244 24.0238 28.4244 26.2935C28.4244 28.1069 27.7459 29.8241 26.7593 31.1283Z" fill="#C4C4C4"/>
<path d="M77.916 18.1532C78.4334 18.6706 79.2721 18.671 79.7901 18.1542L84.6 13.3547C84.7952 13.16 85.1112 13.16 85.3063 13.3547L90.1163 18.1542C90.6342 18.671 91.4729 18.6706 91.9903 18.1532C92.5081 17.6354 92.5081 16.7959 91.9903 16.2781L85.3067 9.59452C85.1115 9.39926 84.7949 9.39926 84.5996 9.59452L77.916 16.2781C77.3983 16.7959 77.3983 17.6354 77.916 18.1532Z" fill="#C4C4C4"/>
</svg>
