<svg width="37" height="37" viewBox="0 0 37 37" fill="none" xmlns="http://www.w3.org/2000/svg">
<path fill-rule="evenodd" clip-rule="evenodd" d="M31.5191 0.0214844C32.0204 0.0214844 32.4267 0.427843 32.4267 0.929112V3.65199H35.1496C35.6509 3.65199 36.0572 4.05835 36.0572 4.55962C36.0572 5.06089 35.6509 5.46725 35.1496 5.46725H32.4267V8.19013C32.4267 8.6914 32.0204 9.09776 31.5191 9.09776C31.0178 9.09776 30.6115 8.6914 30.6115 8.19013V5.46725H27.8886C27.3873 5.46725 26.981 5.06089 26.981 4.55962C26.981 4.05835 27.3873 3.65199 27.8886 3.65199H30.6115V0.929112C30.6115 0.427843 31.0178 0.0214844 31.5191 0.0214844Z" fill="#C4C4C4"/>
<path fill-rule="evenodd" clip-rule="evenodd" d="M16.997 3.4668C20.2407 3.4668 23.2637 4.41215 25.8054 6.04238C26.0145 6.59193 26.5374 6.98678 27.1552 7.00806C28.1315 7.78414 29.0169 8.66957 29.793 9.64587C29.8143 10.2636 30.2091 10.7865 30.7587 10.9957C32.3889 13.5374 33.3343 16.5603 33.3343 19.8041C33.3343 28.8269 26.0198 36.1414 16.997 36.1414C7.97412 36.1414 0.659668 28.8269 0.659668 19.8041C0.659668 10.7813 7.97412 3.4668 16.997 3.4668ZM12.9127 17.7619C14.0406 17.7619 14.9549 16.8476 14.9549 15.7197C14.9549 14.5919 14.0406 13.6776 12.9127 13.6776C11.7849 13.6776 10.8705 14.5919 10.8705 15.7197C10.8705 16.8476 11.7849 17.7619 12.9127 17.7619ZM23.1235 15.7197C23.1235 16.8476 22.2092 17.7619 21.0813 17.7619C19.9535 17.7619 19.0392 16.8476 19.0392 15.7197C19.0392 14.5919 19.9535 13.6776 21.0813 13.6776C22.2092 13.6776 23.1235 14.5919 23.1235 15.7197ZM11.3178 21.6226C11.1943 21.3756 10.8939 21.2755 10.6469 21.399C10.4 21.5225 10.2998 21.8228 10.4233 22.0698C10.9525 23.128 11.6792 24.2201 12.7402 25.0483C13.8102 25.8835 15.1951 26.4305 16.997 26.4305C18.799 26.4305 20.1838 25.8835 21.2537 25.0483C22.3146 24.2201 23.0414 23.128 23.5707 22.0699C23.6942 21.8229 23.5942 21.5225 23.3472 21.399C23.1002 21.2755 22.7999 21.3755 22.6763 21.6225C22.1841 22.6065 21.5394 23.5566 20.6384 24.26C19.7463 24.9564 18.5787 25.4305 16.997 25.4305C15.4154 25.4305 14.2476 24.9564 13.3555 24.26C12.4544 23.5566 11.8097 22.6065 11.3178 21.6226Z" fill="#C4C4C4"/>
</svg>
