<svg width="33" height="35" viewBox="0 0 33 35" fill="none" xmlns="http://www.w3.org/2000/svg">
<mask id="mask0_1_1736" style="mask-type:alpha" maskUnits="userSpaceOnUse" x="1" y="1" width="31" height="33">
<path d="M16.2861 33.8975C18.1715 33.8975 31.3756 26.3523 31.3756 9.37551C30.403 9.37563 22.1274 7.48927 16.2861 1.83032C10.4449 7.48922 2.16814 9.37563 1.19482 9.37551C1.19482 26.3523 14.4007 33.8975 16.2861 33.8975Z" fill="#C4C4C4"/>
</mask>
<g mask="url(#mask0_1_1736)">
<rect x="-0.691895" y="-0.0561523" width="16.9767" height="17.9198" fill="#C4C4C4"/>
<rect x="16.2849" y="17.8635" width="16.9767" height="17.9198" fill="#C4C4C4"/>
</g>
<path fill-rule="evenodd" clip-rule="evenodd" d="M15.6297 1.15296C15.9954 0.798622 16.5764 0.798623 16.9422 1.15296C19.747 3.87021 23.158 5.69949 26.0094 6.85052C27.4313 7.42447 28.7019 7.82488 29.6697 8.08059C30.1538 8.20851 30.5576 8.29901 30.8628 8.35679C31.0156 8.38572 31.1392 8.40559 31.2328 8.41791C31.3293 8.4306 31.3717 8.43226 31.3751 8.43239L31.3753 8.4324C31.6254 8.43237 31.8653 8.53172 32.0422 8.7086C32.2191 8.88548 32.3185 9.12539 32.3185 9.37555C32.3185 18.129 28.9085 24.4745 25.2449 28.6268C23.4167 30.6989 21.523 32.2282 19.9514 33.2452C19.1663 33.7533 18.452 34.1396 17.8571 34.4027C17.3074 34.6458 16.7364 34.8407 16.2859 34.8407C15.8355 34.8407 15.2644 34.6458 14.7147 34.4027C14.1198 34.1396 13.4054 33.7533 12.6201 33.2452C11.0484 32.2282 9.15452 30.6989 7.32607 28.6269C3.66194 24.4746 0.251465 18.129 0.251465 9.37555C0.251465 9.12539 0.350847 8.88548 0.527746 8.7086C0.704645 8.53172 0.944568 8.43237 1.19473 8.4324C1.1947 8.4324 1.19476 8.43239 1.19491 8.43239C1.19805 8.43227 1.24047 8.43064 1.33734 8.4179C1.43105 8.40558 1.55469 8.38571 1.70754 8.35678C2.01285 8.29899 2.41672 8.20849 2.90093 8.08057C3.86893 7.82485 5.13973 7.42444 6.56179 6.85048C9.41362 5.69945 12.8249 3.87017 15.6297 1.15296ZM2.14836 10.1928C2.35153 17.9922 5.44429 23.6435 8.74043 27.3788C10.4491 29.3151 12.2102 30.7332 13.6449 31.6615C14.3628 32.126 14.9895 32.4617 15.4776 32.6776C15.722 32.7857 15.9219 32.8593 16.0739 32.9044C16.2043 32.9431 16.27 32.9518 16.2848 32.9538C16.2852 32.9539 16.2856 32.9539 16.2859 32.954C16.2862 32.9539 16.2866 32.9539 16.287 32.9538C16.3018 32.9518 16.3676 32.9431 16.4979 32.9044C16.6499 32.8593 16.8497 32.7857 17.0941 32.6776C17.5822 32.4618 18.2088 32.126 18.9266 31.6615C20.3611 30.7332 22.122 29.3152 23.8304 27.3788C27.1261 23.6436 30.2185 17.9922 30.4216 10.1927C30.081 10.1257 29.6646 10.0303 29.1878 9.9043C28.1479 9.62952 26.8021 9.20467 25.3034 8.59968C22.526 7.47859 19.1813 5.72197 16.2859 3.11995C13.3905 5.72196 10.0454 7.47859 7.26779 8.59968C5.76884 9.20467 4.42289 9.62952 3.38271 9.90431C2.90571 10.0303 2.48915 10.1258 2.14836 10.1928Z" fill="#C4C4C4"/>
</svg>
