<svg width="96" height="30" viewBox="0 0 96 30" fill="none" xmlns="http://www.w3.org/2000/svg">
<path fill-rule="evenodd" clip-rule="evenodd" d="M2.73633 0.731445C1.63176 0.731445 0.736328 1.62687 0.736328 2.73144V27.4845C0.736328 28.589 1.63176 29.4845 2.73633 29.4845H38.2717C39.3763 29.4845 40.2717 28.589 40.2717 27.4845V2.73145C40.2717 1.62688 39.3763 0.731445 38.2717 0.731445H2.73633ZM21.0342 7.3894C20.7413 7.09651 20.2664 7.09651 19.9736 7.3894L14.5824 12.7806C14.2895 13.0735 14.2895 13.5484 14.5824 13.8413C14.8753 14.1341 15.3501 14.1341 15.643 13.8413L19.7539 9.73039V20.4992C19.7539 20.9134 20.0897 21.2492 20.5039 21.2492C20.9181 21.2492 21.2539 20.9134 21.2539 20.4992V9.73039L25.3647 13.8413C25.6576 14.1341 26.1325 14.1341 26.4254 13.8413C26.7183 13.5484 26.7183 13.0735 26.4254 12.7806L21.0342 7.3894Z" fill="#C4C4C4"/>
<path d="M75.2611 18.3495C75.7275 18.8159 76.4835 18.8163 76.9503 18.3504L81.2511 14.059C81.4463 13.8643 81.7623 13.8643 81.9574 14.059L86.2582 18.3504C86.7251 18.8163 87.4811 18.8159 87.9474 18.3495C88.4142 17.8828 88.4142 17.1261 87.9474 16.6593L81.9578 10.6697C81.7626 10.4745 81.446 10.4745 81.2507 10.6697L75.2611 16.6593C74.7944 17.1261 74.7944 17.8828 75.2611 18.3495Z" fill="#C4C4C4"/>
</svg>
